<svg xmlns="http://www.w3.org/2000/svg" width="20" height="20" viewBox="0 0 20 20">
    <path fill="#343C4B" fill-rule="evenodd" d="M18 3.636c.552 0 1 .457 1 1.001v12.726c0 .553-.445 1-.993 1H1.993c-.548 0-.993-.456-.993-1V4.637c0-.553.455-1 1-1h2.273v.818l-2.455.038v13.052h16.364V4.455h-2.455v-.819H18zm-5.545 0v.819h-.819v-.819h.819zm-4.091 0v.819h-.819v-.819h.819zM5.27 7.727h9.46c.1 0 .18.074.18.164v.49c0 .092-.081.164-.18.164H5.27c-.1 0-.18-.073-.18-.163V7.89c0-.091.081-.164.18-.164zm0 3.273h9.46c.1 0 .18.073.18.164v.49c0 .092-.081.164-.18.164H5.27c-.1 0-.18-.073-.18-.163v-.491c0-.091.081-.164.18-.164zm0 3.273h9.46c.1 0 .18.073.18.163v.491c0 .091-.081.164-.18.164H5.27c-.1 0-.18-.073-.18-.164v-.49c0-.092.081-.164.18-.164zm.64-9c-.453 0-.82-.733-.82-1.637 0-.903.367-1.636.82-1.636.451 0 .817.733.817 1.636 0 .904-.366 1.637-.818 1.637zm4.09 0c-.452 0-.818-.733-.818-1.637C9.182 2.733 9.548 2 10 2c.452 0 .818.733.818 1.636 0 .904-.366 1.637-.818 1.637zm4.09 0c-.451 0-.817-.733-.817-1.637 0-.903.366-1.636.818-1.636.452 0 .818.733.818 1.636 0 .904-.366 1.637-.818 1.637z"/>
</svg>
