<svg xmlns="http://www.w3.org/2000/svg" width="20" height="20" viewBox="0 0 20 20">
    <g fill="#696969" fill-rule="evenodd">
        <path d="M3.843 4.009h12.315v1H3.843zM9.676 5.954h1v10.37h-1zM7.083 5.954h.648l.649 10.37H7.73zM12.269 5.954h.648l-.648 10.37h-.649z"/>
        <path fill-rule="nonzero" d="M7.731 3.361v1.296l-.648-.648h5.834l-.648.648V3.361a.648.648 0 0 0-.647-.648H8.378a.648.648 0 0 0-.647.648zm-.648 0c0-.716.581-1.296 1.295-1.296h3.244c.715 0 1.295.582 1.295 1.296v1.296H7.083V3.361z"/>
        <path fill-rule="nonzero" d="M15.51 4.01l-.925 13.56a.75.75 0 0 1-.749.699h-7.98a.75.75 0 0 1-.75-.716L4.491 4.009h11.018zm-.649 0H5.14l.602 12.642c.025.53.48.968 1.015.968h6.164c.533 0 1-.433 1.038-.968l.903-12.643z"/>
    </g>
</svg>
