<svg xmlns="http://www.w3.org/2000/svg" width="20" height="20" viewBox="0 0 20 20">
    <path fill="#E0E0E0" fill-rule="evenodd" d="M14.881 6.265a.406.406 0 0 0 0-.573l-.573-.573a.406.406 0 0 0-.573 0L10.19 8.662a.27.27 0 0 1-.382 0L6.265 5.12a.406.406 0 0 0-.573 0l-.573.573a.406.406 0 0 0 0 .573L8.662 9.81a.27.27 0 0 1 0 .382L5.12 13.735a.406.406 0 0 0 0 .573l.573.573a.406.406 0 0 0 .573 0l3.544-3.543a.27.27 0 0 1 .382 0l3.544 3.543a.406.406 0 0 0 .573 0l.573-.573a.406.406 0 0 0 0-.573l-3.543-3.544a.27.27 0 0 1 0-.382l3.543-3.544z"/>
</svg>
