<svg xmlns="http://www.w3.org/2000/svg" width="20" height="20" viewBox="0 0 20 20">
    <path fill="#696969" fill-rule="evenodd" d="M15.818 12.182h1.455V7.818H2.727v4.364h1.455v.727H2.8s-.8 0-.8-.808V7.899s0-.808.8-.808h14.4c.8 0 .8.808.8.808v4.202c0 .808-.8.808-.8.808h-1.382v-.727zM4.553 9.272s-.371 0-.371.364.371.364.371.364h10.894s.371 0 .371-.364c0-.363-.371-.363-.371-.363H4.553zm.356 2.91V18h10.182v-5.818H4.909zm1.455 3.636h7.272v-.727H6.364v.727zm0-2.182v.728h7.272v-.728H6.364zm-.728-.727v4.364h8.728v-4.364H5.636zm8.728-10.182H5.636v3.637H4.91V2h10.182v4.364h-.727V2.727z"/>
</svg>
