<svg xmlns="http://www.w3.org/2000/svg" width="20" height="20" viewBox="0 0 20 20">
    <path fill="#F54B5E" fill-rule="evenodd" d="M7 5.212c.187-.165.392-.321.614-.47a4.41 4.41 0 0 1 1.563-.647c.302-.063.63-.095.981-.095.479 0 .914.066 1.307.198.393.132.73.32 1.01.565.28.244.498.54.652.886.154.347.23.734.23 1.163 0 .418-.06.78-.18 1.084-.121.305-.274.57-.458.796-.184.226-.384.42-.598.586-.214.165-.418.32-.61.466a4.823 4.823 0 0 0-.5.428.847.847 0 0 0-.25.474l-.19 1.204H9.177l-.14-1.344a.367.367 0 0 1-.008-.07v-.07c0-.242.06-.452.181-.63.12-.18.272-.347.454-.504a7.86 7.86 0 0 1 .585-.457c.209-.149.404-.31.586-.483.18-.173.332-.37.453-.59.121-.22.181-.478.181-.775 0-.197-.037-.375-.11-.531a1.203 1.203 0 0 0-.31-.405c-.132-.112-.29-.199-.474-.26a1.906 1.906 0 0 0-.598-.09c-.313 0-.579.034-.796.103a2.934 2.934 0 0 0-.552.231 6.652 6.652 0 0 0-.384.23.527.527 0 0 1-.28.104.45.45 0 0 1-.429-.247L7 5.212zm1.559 9.723c0-.17.031-.333.094-.487.064-.154.152-.286.264-.396a1.299 1.299 0 0 1 .895-.363c.17 0 .333.033.487.1.153.065.285.153.395.263a1.248 1.248 0 0 1 .363.883c0 .175-.033.339-.099.49a1.194 1.194 0 0 1-.66.651 1.268 1.268 0 0 1-.486.095 1.29 1.29 0 0 1-.895-.354c-.112-.11-.2-.24-.264-.392a1.259 1.259 0 0 1-.094-.49z"/>
</svg>
