<svg xmlns="http://www.w3.org/2000/svg" xmlns:xlink="http://www.w3.org/1999/xlink" width="50" height="50" viewBox="0 0 50 50">
    <defs>
        <path id="a" d="M15.686.072H.238v6.817h15.448V.072z"/>
        <path id="c" d="M0 .308v22.327H22.505V.308z"/>
        <path id="e" d="M0 45.928h45.928V.365H0z"/>
    </defs>
    <g fill="none" fill-rule="evenodd" transform="translate(2 2)">
        <path fill="#0779BE" d="M36.567 37.272a19.702 19.702 0 0 1-13.156 5.413v.635a20.352 20.352 0 0 0 13.608-5.6l-.452-.448zM37.652 37.091c3.402-3.526 5.531-8.27 5.647-13.5h-.64c-.115 5.054-2.173 9.641-5.459 13.052l.452.448z"/>
        <path fill="#0779BE" d="M37.494 38.2a21.027 21.027 0 0 1-14.076 5.794v.643a21.679 21.679 0 0 0 14.536-5.982l-.46-.456zM44.626 23.597h-.65c-.116 5.41-2.317 10.32-5.84 13.965l.46.456c3.638-3.763 5.914-8.834 6.03-14.421"/>
        <path fill="#0779BE" d="M23.421 45.28v.648a22.98 22.98 0 0 0 15.449-6.357l-.463-.46a22.325 22.325 0 0 1-14.986 6.168M39.055 38.469l.464.46c3.871-3.997 6.293-9.387 6.41-15.328h-.655c-.12 5.762-2.465 10.989-6.22 14.868M8.275 9.203c-3.403 3.526-5.53 8.27-5.645 13.5h.639c.114-5.054 2.171-9.64 5.459-13.052a19.72 19.72 0 0 1 13.789-6.044v-.634a20.35 20.35 0 0 0-14.242 6.23"/>
        <path fill="#0779BE" d="M7.332 8.276c-3.638 3.764-5.913 8.834-6.03 14.42h.65c.115-5.41 2.317-10.318 5.838-13.965.211-.217.424-.429.644-.636A21.03 21.03 0 0 1 22.509 2.3v-.644a21.678 21.678 0 0 0-15.177 6.62"/>
        <path fill="#0779BE" d="M6.41 7.366C2.536 11.362.117 16.752 0 22.692h.655C.773 16.93 3.12 11.704 6.873 7.826a22.321 22.321 0 0 1 15.633-6.811v-.65a22.977 22.977 0 0 0-16.097 7M37.02 8.574a20.35 20.35 0 0 0-13.608-5.6v.634a19.708 19.708 0 0 1 13.155 5.414l.452-.448zM37.2 9.651c3.288 3.41 5.345 7.997 5.459 13.052h.64c-.115-5.229-2.244-9.975-5.646-13.5l-.453.448z"/>
        <path fill="#0779BE" d="M45.928 22.692c-.118-5.94-2.537-11.33-6.409-15.326l-.464.459c3.754 3.878 6.1 9.106 6.218 14.867h.655z"/>
        <g transform="translate(23.184 .293)">
            <mask id="b" fill="#fff">
                <use xlink:href="#a"/>
            </mask>
            <path fill="#0779BE" d="M15.686 6.429A22.985 22.985 0 0 0 .238.072v.65a22.321 22.321 0 0 1 14.984 6.167l.464-.46z" mask="url(#b)"/>
        </g>
        <path fill="#0779BE" d="M38.137 8.731c3.522 3.646 5.724 8.556 5.84 13.965h.65c-.118-5.587-2.392-10.657-6.03-14.42a21.678 21.678 0 0 0-15.178-6.62V2.3a21.024 21.024 0 0 1 14.718 6.432M7.794 37.555C4.272 33.91 2.07 29.001 1.954 23.59h-.649c.116 5.588 2.391 10.658 6.03 14.421l.46-.456zM22.514 44.631v-.645a21.018 21.018 0 0 1-14.077-5.794l-.459.457a21.683 21.683 0 0 0 14.536 5.982"/>
        <path fill="#0779BE" d="M8.908 37.72a20.354 20.354 0 0 0 13.608 5.6v-.635a19.707 19.707 0 0 1-13.789-6.043C5.44 33.231 3.383 28.645 3.27 23.591h-.64c.115 5.229 2.243 9.973 5.647 13.5.205.213.417.424.632.628"/>
        <g transform="translate(0 23.293)">
            <mask id="d" fill="#fff">
                <use xlink:href="#c"/>
            </mask>
            <path fill="#0779BE" d="M7.057 16.277a22.979 22.979 0 0 0 15.448 6.358v-.649a22.329 22.329 0 0 1-15.634-6.812C3.12 11.296.772 6.069.655.308H0c.118 5.941 2.537 11.33 6.409 15.325.212.22.428.434.648.644" mask="url(#d)"/>
        </g>
        <path fill="#FEFEFE" d="M22.964 4.999c-10.088 0-18.293 8.14-18.293 18.147 0 10.006 8.205 18.147 18.293 18.147 10.086 0 18.292-8.14 18.292-18.147 0-10.007-8.206-18.147-18.292-18.147m0 36.916c-10.433 0-18.92-8.42-18.92-18.77 0-10.349 8.487-18.767 18.92-18.767 10.43 0 18.918 8.418 18.918 18.768 0 10.35-8.487 18.769-18.918 18.769"/>
        <mask id="f" fill="#fff">
            <use xlink:href="#e"/>
        </mask>
        <path fill="#FEFEFE" d="M22.596 41.915h.736V4.378h-.736z" mask="url(#f)"/>
        <path fill="#FEFEFE" d="M4.045 23.511h37.838v-.73H4.045zM7.976 16.623a.81.81 0 0 0 .097-.166.79.79 0 0 0-.167-.097.766.766 0 0 1 .42-.284.756.756 0 0 1 .309-.013.73.73 0 0 1-.284-.71c.06.024.123.042.187.05a.781.781 0 0 0 .051-.185c.157.06.296.17.387.327a.759.759 0 0 1 .093.296.757.757 0 0 1 .188-.258.772.772 0 0 1 .473-.188.785.785 0 0 0-.012.192.837.837 0 0 0 .194.013.76.76 0 0 1-.247.44.727.727 0 0 1-.186.118.753.753 0 0 1 .555.438.807.807 0 0 0-.184.058c.01.064.031.125.058.184a.773.773 0 0 1-.505-.07.755.755 0 0 1-.176-.13c.013.07.02.143.01.219a.755.755 0 0 1-.222.453.855.855 0 0 0-.12-.15.786.786 0 0 0-.153.12.763.763 0 0 1-.117-.491.758.758 0 0 1 .06-.211.74.74 0 0 1-.709.045M18.086 10.27a.81.81 0 0 0 .097-.167.79.79 0 0 0-.167-.097.766.766 0 0 1 .42-.284.756.756 0 0 1 .309-.013.73.73 0 0 1-.284-.71c.06.024.123.042.186.05a.781.781 0 0 0 .052-.185c.157.06.296.17.387.327a.759.759 0 0 1 .093.296.757.757 0 0 1 .188-.258.772.772 0 0 1 .473-.188.785.785 0 0 0-.012.192.837.837 0 0 0 .194.013.76.76 0 0 1-.247.44.727.727 0 0 1-.187.118.753.753 0 0 1 .555.438.807.807 0 0 0-.183.058c.01.064.031.125.058.184a.773.773 0 0 1-.505-.07.755.755 0 0 1-.176-.13c.013.07.02.143.01.219a.755.755 0 0 1-.222.453.855.855 0 0 0-.12-.15.786.786 0 0 0-.153.12.763.763 0 0 1-.117-.491.758.758 0 0 1 .06-.211.74.74 0 0 1-.709.045M18.842 18.601a.83.83 0 0 0 .097-.166.76.76 0 0 0-.167-.097.764.764 0 0 1 .42-.285.769.769 0 0 1 .309-.012.742.742 0 0 1-.193-.214.748.748 0 0 1-.091-.496c.06.024.123.041.186.05a.785.785 0 0 0 .052-.185c.157.06.295.17.387.326a.766.766 0 0 1 .093.297.767.767 0 0 1 .188-.259.775.775 0 0 1 .473-.187.781.781 0 0 0-.012.191.799.799 0 0 0 .193.013.76.76 0 0 1-.247.442.724.724 0 0 1-.186.116.751.751 0 0 1 .555.438.807.807 0 0 0-.183.058c.01.064.031.126.058.184a.772.772 0 0 1-.505-.07.758.758 0 0 1-.176-.13c.013.071.019.143.01.219a.755.755 0 0 1-.222.454.829.829 0 0 0-.121-.15.782.782 0 0 0-.153.12.762.762 0 0 1-.116-.491.744.744 0 0 1 .06-.211.74.74 0 0 1-.709.045M20.517 13.781c.092.063.193.112.297.15a1.32 1.32 0 0 1-.692.529c-.412.132-.838.05-1.168-.176a1.316 1.316 0 0 1 1.714-.797c-.06.092-.113.19-.15.294M9.072 19.785c.12.082.253.147.39.198-.21.315-.52.569-.91.695a1.76 1.76 0 0 1-1.535-.232 1.729 1.729 0 0 1 2.253-1.048c-.08.122-.149.25-.198.387M31.525 39.763h-.736v-4.539l.273-.072c.034-.01 3.407-.936 3.407-3.299v-1.627h.736v1.627c0 2.504-2.779 3.624-3.68 3.921v3.99z" mask="url(#f)"/>
        <path fill="#FEFEFE" d="M30.79 35.504h.735v-8.092h-.736z" mask="url(#f)"/>
        <path fill="#FEFEFE" d="M30.93 33.79c-1.007-.257-2.913-1.321-2.913-3.52h.736c0 2.187 2.337 2.806 2.36 2.812l-.182.707zM35.771 17.266c-1.143 0-1.72-.282-2.279-.555-.504-.247-.98-.48-1.954-.48-.972 0-1.448.233-1.952.48-.558.273-1.134.555-2.278.555-1.143 0-1.72-.282-2.278-.556-.505-.246-.981-.48-1.953-.48v-.73c1.143 0 1.72.283 2.278.556.505.246.981.48 1.953.48.972 0 1.448-.234 1.952-.48.558-.273 1.135-.556 2.278-.556 1.144 0 1.722.283 2.28.556.504.246.98.48 1.953.48.973 0 1.45-.234 1.954-.48.558-.273 1.135-.556 2.28-.556v.73c-.973 0-1.45.234-1.954.48-.558.274-1.136.556-2.28.556M36.185 19.182c-1.175 0-1.77-.28-2.343-.553-.524-.247-1.018-.482-2.028-.482-1.008 0-1.502.235-2.025.482-.574.272-1.168.553-2.343.553-1.176 0-1.77-.28-2.343-.553-.523-.247-1.017-.482-2.026-.482v-.73c1.175 0 1.77.282 2.343.553.523.248 1.017.482 2.026.482s1.502-.234 2.026-.482c.573-.271 1.167-.553 2.342-.553 1.177 0 1.77.282 2.345.553.523.248 1.017.482 2.026.482 1.01 0 1.504-.234 2.027-.482.575-.271 1.168-.553 2.345-.553v.73c-1.01 0-1.504.235-2.028.482-.574.272-1.168.553-2.344.553M36.737 21.19c-1.219 0-1.834-.28-2.43-.55-.549-.25-1.066-.485-2.125-.485-1.058 0-1.575.235-2.122.485-.596.27-1.211.55-2.43.55s-1.834-.28-2.43-.55c-.548-.25-1.065-.485-2.123-.485v-.73c1.218 0 1.834.28 2.43.551.548.249 1.065.484 2.123.484 1.058 0 1.575-.235 2.123-.484.595-.27 1.21-.551 2.429-.551 1.22 0 1.835.28 2.431.551.548.249 1.066.484 2.124.484 1.059 0 1.577-.235 2.124-.484.596-.27 1.212-.551 2.432-.551v.73c-1.059 0-1.577.235-2.125.485-.596.27-1.211.55-2.43.55M26.137 12.225l-.652-.337c.288-.55 1.03-1.428 1.932-1.24.319-.444.973-.918 1.972-.628l-.206.7c-.894-.256-1.225.433-1.26.513l-.154.35-.347-.166c-.666-.326-1.279.797-1.285.808M36.195 13.867c-.285-.384-.582-.597-.884-.631a.93.93 0 0 0-.64.193l-.302.255-.238-.314c-.217-.294-.463-.46-.73-.495-.44-.057-.831.243-.834.246l-.462-.57c.026-.02.635-.497 1.39-.4.376.049.713.224 1.006.523.211-.105.514-.204.879-.165.519.054.993.366 1.408.926l-.593.432zM36.225 28.09c.021.069.008.355.008.355s.168-.127.22-.142c.05-.015.16.061.181.134 0 0 .154-.379.212-.371.058.007.093.65.093.65s.108-.176.164-.174c.056.001.307.319.307.319s.003.003.006.002c.004 0 .004-.005.004-.005s.036-.402.083-.434c.046-.03.232.059.232.059s-.322-.56-.278-.597c.044-.037.381.198.381.198-.021-.073.029-.198.08-.212.05-.015.26.002.26.002s-.167-.233-.188-.303c-.02-.07.076-.095.073-.107-.004-.013-.114-.046-.283-.124-.17-.077-.316-.12-.333-.178-.013-.044.001-.175.001-.175l-.43.209c-.033.017-.065.026-.087-.047l-.102-.432-.103.03.156.417c.022.072-.01.081-.047.086-.037.003-.476.057-.476.057s.085.102.098.147c.017.057-.082.172-.181.328-.1.157-.174.244-.17.256.003.013.098-.018.119.052M26.757 26.752c-.086.004-.41-.093-.41-.093s.097.224.1.286c.002.062-.118.163-.207.166 0 0 .388.284.363.346-.025.063-.77-.083-.77-.083s.169.171.151.234c-.017.062-.453.252-.453.252s-.005.003-.005.007c0 .003.006.005.006.005s.449.158.47.22c.022.06-.134.244-.134.244s.733-.201.762-.14c.03.06-.337.37-.337.37.09-.002.217.09.22.151.002.062-.078.294-.078.294s.314-.12.4-.123c.086-.003.086.112.101.112.016-.001.086-.116.224-.283.138-.167.23-.32.3-.322.054-.002.2.053.2.053l-.114-.545c-.009-.042-.01-.08.08-.083l.523.01-.005-.124-.521.054c-.09.003-.09-.035-.084-.078l.072-.551s-.142.065-.196.067c-.07.003-.173-.142-.323-.3-.15-.156-.228-.266-.243-.266-.015.002-.007.117-.092.12M25.842 35.453c-.092.106-.577.385-.577.385s.384.138.462.204c.078.068.066.326-.031.438 0 0 .784-.146.833-.046.048.102-.974.83-.974.83s.4-.008.457.084c.057.091-.205.83-.205.83s-.002.01.002.014c.004.003.013 0 .013 0s.701-.361.8-.318c.1.043.147.437.147.437s.584-1.106.691-1.072c.107.032.073.824.073.824.097-.111.354-.16.43-.093.079.067.27.426.27.426s.21-.515.303-.621c.094-.106.236.025.253.006.016-.02-.045-.233-.093-.588-.047-.356-.13-.638-.053-.725.059-.068.29-.181.29-.181s-.73-.444-.792-.48c-.062-.037-.11-.079-.013-.19l.605-.617-.156-.134-.525.687c-.097.111-.145.07-.19.013-.045-.056-.59-.712-.59-.712s-.081.244-.14.311c-.076.088-.37.047-.73.05-.361.002-.584-.028-.6-.01-.017.02.133.141.04.248M15.44 33.896c-1.465 0-2.658 1.183-2.658 2.637s1.193 2.637 2.658 2.637c1.466 0 2.658-1.183 2.658-2.637s-1.192-2.637-2.658-2.637m0 6.004c-1.871 0-3.394-1.51-3.394-3.367 0-1.856 1.523-3.367 3.394-3.367 1.872 0 3.394 1.511 3.394 3.367 0 1.857-1.522 3.367-3.394 3.367" mask="url(#f)"/>
        <path fill="#FEFEFE" d="M15.44 28.778c-1.23 0-2.231.993-2.231 2.213 0 1.22 1 2.213 2.231 2.213 1.23 0 2.231-.992 2.231-2.213 0-1.22-1-2.213-2.23-2.213m0 5.157c-1.637 0-2.968-1.32-2.968-2.944 0-1.623 1.331-2.943 2.967-2.943 1.636 0 2.967 1.32 2.967 2.943s-1.331 2.944-2.967 2.944M17.832 34.407l-.516-.52c.12-.117 2.972-2.876 5.883-2.876v.73c-2.612 0-5.34 2.64-5.367 2.666M12.324 35.181c-.022-.015-2.232-1.477-4.76-1.477v-.73c2.76 0 5.076 1.537 5.173 1.602l-.413.605z" mask="url(#f)"/>
        <path fill="#FEFEFE" d="M11.405 31.087h3.104v-.73h-3.104zM7.72 28.528a.31.31 0 0 1-.31.308.31.31 0 0 1-.31-.308c0-.17.138-.308.31-.308.171 0 .31.138.31.308M9.698 25.757c0 .17-.138.308-.31.308a.309.309 0 0 1-.31-.308c0-.17.139-.308.31-.308.172 0 .31.138.31.308M11.483 28.605a.31.31 0 0 1-.31.308.31.31 0 0 1-.31-.308c0-.17.138-.308.31-.308.171 0 .31.138.31.308M19.669 28.644a.31.31 0 0 1-.31.308.31.31 0 0 1-.311-.308c0-.17.139-.308.31-.308.172 0 .31.137.31.308M21.647 25.873c0 .17-.139.307-.31.307a.309.309 0 0 1-.31-.307c0-.17.138-.308.31-.308.171 0 .31.137.31.308M16.333 30.183c0 .17-.14.308-.311.308a.309.309 0 0 1-.31-.308c0-.17.138-.308.31-.308a.31.31 0 0 1 .31.308M16.546 28.998L15.302 26.5l-1.116 2.485-.673-.298 1.755-3.904 1.937 3.891zM14.175 13.36c.243 0 .482.036.713.107a.715.715 0 0 0-.713-.638c-.37 0-.674.28-.712.637.23-.07.47-.106.712-.106zm-1.162 1.128l-.163-.363a1.426 1.426 0 0 1-.126-.586c0-.794.65-1.44 1.451-1.44.8 0 1.452.646 1.452 1.44 0 .085-.009.172-.027.266l-.024.132-.105.085a.683.683 0 0 0-.12.12l-.18.24-.273-.129a1.711 1.711 0 0 0-1.534.043l-.351.192z" mask="url(#f)"/>
        <path fill="#FEFEFE" d="M15.697 13.893c.364.293.636.682.781 1.122a.707.707 0 0 0 .06-.812.734.734 0 0 0-.841-.31zm.597 2.072l-.148-.056-.246-.063-.047-.259a1.673 1.673 0 0 0-.866-1.29l-.297-.163.138-.307a.71.71 0 0 0 .05-.156l.024-.13.104-.085c.06-.048.113-.09.174-.126a1.457 1.457 0 0 1 1.99.5 1.437 1.437 0 0 1-.748 2.088l-.128.047z" mask="url(#f)"/>
        <path fill="#FEFEFE" d="M16.552 16.235a2.388 2.388 0 0 1-.497 1.046.707.707 0 0 0 .498-1.046m-.626 1.788c-.24 0-.479-.06-.691-.175a.879.879 0 0 1-.111-.07l-.426-.31.41-.31a1.67 1.67 0 0 0 .754-1.394c0-.047-.004-.093-.008-.14l-.023-.298.46-.135.127.04c.067.025.135.05.2.084.704.38.966 1.256.585 1.954a1.452 1.452 0 0 1-1.277.754" mask="url(#f)"/>
        <path fill="#FEFEFE" d="M13.673 18.115c.13.132.31.212.51.212h.03a.715.715 0 0 0 .485-.216 2.428 2.428 0 0 1-1.025.004zm.51.943c-.78 0-1.417-.607-1.45-1.382a1.238 1.238 0 0 1 .01-.186l.059-.575.5.279c.535.322 1.23.318 1.76-.008l.496-.306.064.576a.887.887 0 0 1 .013.099 1.45 1.45 0 0 1-1.392 1.502h-.06z" mask="url(#f)"/>
        <path fill="#FEFEFE" d="M11.804 16.262a.707.707 0 0 0-.008.788.714.714 0 0 0 .578.321 2.376 2.376 0 0 1-.57-1.11m.592 1.84a1.45 1.45 0 0 1-1.216-.653 1.437 1.437 0 0 1 .664-2.118l.122-.049.127.04c.03.009.06.015.091.02l.318.054-.013.358c-.001.587.294 1.116.788 1.426l.43.27-.393.32a1.092 1.092 0 0 1-.127.1 1.45 1.45 0 0 1-.79.232" mask="url(#f)"/>
        <path fill="#FEFEFE" d="M12.31 13.937a.708.708 0 0 0-.482 1.237c.117-.462.37-.877.725-1.194a.708.708 0 0 0-.244-.043zM12 16.058l-.13-.042.113-.348-.126.344c-.063-.02-.125-.041-.186-.071a1.437 1.437 0 0 1 .638-2.734 1.43 1.43 0 0 1 1.144.56l.26.333-.369.208c-.493.278-.811.78-.85 1.341l-.018.265-.26.065a.573.573 0 0 0-.09.026l-.126.053zM13.807 22.863h.736v-4.319h-.736z" mask="url(#f)"/>
        <path fill="#FEFEFE" d="M14.797 22.68h.053a2.376 2.376 0 0 0 2.382-2.363v-.052h-.052a2.377 2.377 0 0 0-2.383 2.415m.053.73c-.138 0-.278-.01-.443-.033l-.273-.039-.038-.27a2.978 2.978 0 0 1-.035-.44c0-1.706 1.399-3.094 3.119-3.094.137 0 .278.011.442.034l.273.04.038.27c.024.163.035.303.035.439 0 1.706-1.399 3.094-3.118 3.094" mask="url(#f)"/>
        <path fill="#FEFEFE" d="M11.117 20.265v.052a2.376 2.376 0 0 0 2.383 2.364l.052-.001v-.051a2.377 2.377 0 0 0-2.382-2.365h-.053m2.383 3.147c-1.72 0-3.12-1.388-3.12-3.094 0-.136.012-.276.036-.44l.038-.27.273-.039c.165-.023.305-.034.443-.034 1.72 0 3.118 1.388 3.118 3.095 0 .136-.01.275-.035.438l-.038.271-.273.038a3.032 3.032 0 0 1-.442.035" mask="url(#f)"/>
    </g>
</svg>
